<svg width="28" height="28" viewBox="0 0 28 28" fill="none" xmlns="http://www.w3.org/2000/svg">
<path d="M5.54175 22.1667C5.28897 22.1667 5.07994 22.084 4.91466 21.9188C4.74939 21.7535 4.66675 21.5444 4.66675 21.2917C4.66675 21.0389 4.74939 20.8299 4.91466 20.6646C5.07994 20.4993 5.28897 20.4167 5.54175 20.4167H7.11675V11.4917C7.11675 9.89722 7.598 8.45347 8.5605 7.16042C9.523 5.86736 10.7917 5.05555 12.3667 4.725V3.87917C12.3667 3.43194 12.5272 3.0625 12.848 2.77083C13.1688 2.47917 13.5529 2.33333 14.0001 2.33333C14.4473 2.33333 14.8313 2.47917 15.1522 2.77083C15.473 3.0625 15.6334 3.43194 15.6334 3.87917V4.725C17.2084 5.05555 18.482 5.86736 19.4542 7.16042C20.4265 8.45347 20.9126 9.89722 20.9126 11.4917V20.4167H22.4584C22.7112 20.4167 22.9202 20.4993 23.0855 20.6646C23.2508 20.8299 23.3334 21.0389 23.3334 21.2917C23.3334 21.5444 23.2508 21.7535 23.0855 21.9188C22.9202 22.084 22.7112 22.1667 22.4584 22.1667H5.54175ZM14.0001 25.6667C13.3779 25.6667 12.8334 25.4382 12.3667 24.9813C11.9001 24.5243 11.6667 23.975 11.6667 23.3333H16.3334C16.3334 23.975 16.1049 24.5243 15.648 24.9813C15.1911 25.4382 14.6417 25.6667 14.0001 25.6667ZM8.86675 20.4167H19.1626V11.4917C19.1626 10.0333 18.6716 8.80347 17.6897 7.80208C16.7077 6.80069 15.4973 6.3 14.0584 6.3C12.6001 6.3 11.3702 6.80069 10.3688 7.80208C9.36744 8.80347 8.86675 10.0333 8.86675 11.4917V20.4167Z" fill="#F9FAFB"/>
</svg>
