<svg width="29" height="28" viewBox="0 0 29 28" fill="none" xmlns="http://www.w3.org/2000/svg">
<path d="M11.3331 18.375C11.8999 18.375 12.3819 18.1764 12.779 17.7793C13.1761 17.3822 13.3747 16.9002 13.3747 16.3333C13.3747 15.7664 13.1761 15.2845 12.779 14.8874C12.3819 14.4902 11.8999 14.2917 11.3331 14.2917C10.7662 14.2917 10.2842 14.4902 9.88709 14.8874C9.48998 15.2845 9.29142 15.7664 9.29142 16.3333C9.29142 16.9002 9.48998 17.3822 9.88709 17.7793C10.2842 18.1764 10.7662 18.375 11.3331 18.375ZM18.3331 18.375C18.8999 18.375 19.3819 18.1764 19.779 17.7793C20.1761 17.3822 20.3747 16.9002 20.3747 16.3333C20.3747 15.7664 20.1761 15.2845 19.779 14.8874C19.3819 14.4902 18.8999 14.2917 18.3331 14.2917C17.7662 14.2917 17.2842 14.4902 16.8871 14.8874C16.49 15.2845 16.2914 15.7664 16.2914 16.3333C16.2914 16.9002 16.49 17.3822 16.8871 17.7793C17.2842 18.1764 17.7662 18.375 18.3331 18.375ZM14.8331 12.5416C15.3999 12.5416 15.8819 12.3431 16.279 11.946C16.6761 11.5489 16.8747 11.0669 16.8747 10.5C16.8747 9.93311 16.6761 9.45112 16.279 9.05403C15.8819 8.65691 15.3999 8.45835 14.8331 8.45835C14.2662 8.45835 13.7842 8.65691 13.3871 9.05403C12.99 9.45112 12.7914 9.93311 12.7914 10.5C12.7914 11.0669 12.99 11.5489 13.3871 11.946C13.7842 12.3431 14.2662 12.5416 14.8331 12.5416ZM14.835 25.0833C13.3021 25.0833 11.8612 24.7924 10.5124 24.2106C9.16356 23.6289 7.99026 22.8393 6.99251 21.842C5.99473 20.8447 5.20483 19.6719 4.6228 18.3237C4.04077 16.9754 3.74976 15.5349 3.74976 14.0019C3.74976 12.469 4.04064 11.0282 4.62242 9.67933C5.2042 8.33049 5.99374 7.15719 6.99105 6.15944C7.98837 5.16167 9.16115 4.37176 10.5094 3.78973C11.8576 3.2077 13.2982 2.91669 14.8311 2.91669C16.364 2.91669 17.8049 3.20758 19.1537 3.78936C20.5026 4.37113 21.6759 5.16067 22.6736 6.15798C23.6714 7.1553 24.4613 8.32809 25.0433 9.67633C25.6254 11.0245 25.9164 12.4651 25.9164 13.998C25.9164 15.531 25.6255 16.9718 25.0437 18.3207C24.4619 19.6695 23.6724 20.8428 22.6751 21.8405C21.6777 22.8383 20.505 23.6282 19.1567 24.2103C17.8085 24.7923 16.3679 25.0833 14.835 25.0833ZM14.8331 23.3333C17.4386 23.3333 19.6456 22.4292 21.4539 20.6208C23.2622 18.8125 24.1664 16.6055 24.1664 14C24.1664 11.3944 23.2622 9.18749 21.4539 7.37916C19.6456 5.57083 17.4386 4.66666 14.8331 4.66666C12.2275 4.66666 10.0206 5.57083 8.21223 7.37916C6.40389 9.18749 5.49973 11.3944 5.49973 14C5.49973 16.6055 6.40389 18.8125 8.21223 20.6208C10.0206 22.4292 12.2275 23.3333 14.8331 23.3333Z" fill="#0B3010"/>
</svg>
