<svg width="25" height="24" viewBox="0 0 25 24" fill="none" xmlns="http://www.w3.org/2000/svg">
<path d="M16.0904 14.3696C16.1948 14.8128 16.25 15.275 16.25 15.75C16.25 19.0637 13.5637 21.75 10.25 21.75V16.9503M16.0904 14.3696C19.8244 11.6411 22.25 7.22874 22.25 2.25C17.2715 2.25021 12.8595 4.67586 10.1312 8.40975M16.0904 14.3696C14.3819 15.6181 12.3994 16.514 10.25 16.9503M10.1312 8.40975C9.68777 8.30528 9.22534 8.25 8.75 8.25C5.43629 8.25 2.75 10.9363 2.75 14.25H7.55072M10.1312 8.40975C8.88285 10.1183 7.98701 12.1007 7.55072 14.25M10.25 16.9503C10.1466 16.9713 10.0428 16.9912 9.93862 17.0101C9.03171 16.291 8.20991 15.4692 7.49079 14.5623C7.50969 14.4578 7.52967 14.3537 7.55072 14.25M5.31191 16.6408C4.21213 17.4612 3.5 18.7724 3.5 20.25C3.5 20.4869 3.5183 20.7195 3.55356 20.9464C3.78054 20.9817 4.01313 21 4.25 21C5.72758 21 7.03883 20.2879 7.85925 19.1881M17 9C17 9.82843 16.3284 10.5 15.5 10.5C14.6716 10.5 14 9.82843 14 9C14 8.17157 14.6716 7.5 15.5 7.5C16.3284 7.5 17 8.17157 17 9Z" stroke="white" stroke-width="1.5" stroke-linecap="round" stroke-linejoin="round"/>
</svg>
