<svg width="29" height="28" viewBox="0 0 29 28" fill="none" xmlns="http://www.w3.org/2000/svg">
<path d="M11.4811 24.5C11.0563 24.5 10.6771 24.3684 10.3436 24.1051C10.01 23.8419 9.78267 23.5001 9.66151 23.0798L8.46119 18.3525H21.2048L20.0045 23.0798C19.8833 23.5001 19.656 23.8419 19.3224 24.1051C18.9889 24.3684 18.6097 24.5 18.1849 24.5H11.4811ZM14.833 10.1186C14.9826 8.59291 15.5958 7.29163 16.6727 6.21472C17.7497 5.13779 19.051 4.53201 20.5766 4.3974C20.442 5.80339 19.8915 7.03213 18.9253 8.08363C17.9591 9.13513 16.7894 9.79699 15.4163 10.0692V12.8333H23.7625V15.5705C23.7625 16.0925 23.5789 16.5371 23.2117 16.9043C22.8445 17.2715 22.3999 17.4551 21.8779 17.4551H7.833C7.31099 17.4551 6.86638 17.2715 6.49918 16.9043C6.13197 16.5371 5.94836 16.0925 5.94836 15.5705V12.8333H14.2497V10.0692C12.8766 9.79699 11.7107 9.13886 10.7519 8.09483C9.79314 7.05082 9.23898 5.81834 9.08941 4.3974C10.615 4.53201 11.9163 5.13779 12.9933 6.21472C14.0702 7.29163 14.6834 8.59291 14.833 10.1186Z" fill="#0B3010"/>
</svg>
