<svg width="29" height="28" viewBox="0 0 29 28" fill="none" xmlns="http://www.w3.org/2000/svg">
<path d="M25.0592 12.8019V22.0993C25.0592 22.6887 24.855 23.1875 24.4467 23.5958C24.0384 24.0041 23.5395 24.2083 22.9502 24.2083H6.75153C6.16222 24.2083 5.6634 24.0041 5.25507 23.5958C4.84674 23.1875 4.64257 22.6887 4.64257 22.0993V12.7795C4.17291 12.3936 3.82029 11.8929 3.5847 11.2774C3.34913 10.6619 3.34427 9.99743 3.57011 9.28398L4.75025 5.42948C4.90581 4.9389 5.16981 4.54328 5.54225 4.24263C5.91469 3.942 6.35966 3.79169 6.87718 3.79169H22.8021C23.3197 3.79169 23.7617 3.93528 24.1281 4.22245C24.4946 4.50963 24.7616 4.90449 24.9291 5.40705L26.1316 9.28398C26.3575 9.99743 26.3526 10.6597 26.1171 11.2707C25.8815 11.8817 25.5289 12.3921 25.0592 12.8019ZM17.4175 11.9584C18.0547 11.9584 18.5338 11.7635 18.8546 11.3739C19.1754 10.9843 19.3067 10.5658 19.2483 10.1186L18.5394 5.54163H15.7259V10.15C15.7259 10.6406 15.8919 11.0646 16.224 11.4221C16.556 11.7796 16.9539 11.9584 17.4175 11.9584ZM12.1675 11.9584C12.7045 11.9584 13.1402 11.7796 13.4745 11.4221C13.8088 11.0646 13.9759 10.6406 13.9759 10.15V5.54163H11.1624L10.4534 10.1635C10.3906 10.5778 10.5207 10.9805 10.8438 11.3716C11.1669 11.7628 11.6081 11.9584 12.1675 11.9584ZM6.97588 11.9584C7.40815 11.9584 7.77985 11.8077 8.09098 11.5063C8.40209 11.2049 8.59429 10.8261 8.66757 10.3699L9.35413 5.54163H6.87718C6.75003 5.54163 6.64906 5.56968 6.57428 5.62577C6.49948 5.68187 6.44338 5.76602 6.40599 5.87821L5.28421 9.67434C5.13013 10.1754 5.20267 10.6814 5.50182 11.1921C5.80097 11.703 6.29233 11.9584 6.97588 11.9584ZM22.7259 11.9584C23.3571 11.9584 23.8402 11.7104 24.1753 11.2146C24.5103 10.7188 24.5911 10.2053 24.4176 9.67434L23.2375 5.85575C23.2 5.74358 23.144 5.66318 23.0692 5.61455C22.9944 5.56594 22.8934 5.54163 22.7663 5.54163H20.3477L21.0342 10.3699C21.1075 10.8261 21.2997 11.2049 21.6108 11.5063C21.9219 11.8077 22.2936 11.9584 22.7259 11.9584ZM6.75153 22.4584H22.9502C23.055 22.4584 23.141 22.4247 23.2083 22.3574C23.2756 22.2901 23.3092 22.2041 23.3092 22.0993V13.6051C23.1821 13.6515 23.0759 13.6802 22.9907 13.6915C22.9054 13.7027 22.8171 13.7083 22.7259 13.7083C22.2009 13.7083 21.7391 13.6133 21.3405 13.4234C20.9418 13.2334 20.5556 12.929 20.1817 12.5102C19.8541 12.8752 19.4667 13.1661 19.0195 13.383C18.5723 13.5999 18.0622 13.7083 17.4894 13.7083C16.9943 13.7083 16.5276 13.6055 16.0894 13.3998C15.6511 13.1941 15.2383 12.8976 14.8509 12.5102C14.4904 12.8976 14.0821 13.1941 13.6259 13.3998C13.1697 13.6055 12.7075 13.7083 12.2394 13.7083C11.7129 13.7083 11.2193 13.613 10.7586 13.4223C10.2979 13.2315 9.89254 12.9275 9.54254 12.5102C9.05194 13.0008 8.59986 13.3232 8.18629 13.4772C7.77273 13.6313 7.36926 13.7083 6.97588 13.7083C6.88464 13.7083 6.79041 13.7027 6.69319 13.6915C6.59595 13.6802 6.49573 13.6515 6.39254 13.6051V22.0993C6.39254 22.2041 6.42619 22.2901 6.49349 22.3574C6.56081 22.4247 6.64682 22.4584 6.75153 22.4584Z" fill="#0B3010"/>
</svg>
