<svg width="29" height="28" viewBox="0 0 29 28" fill="none" xmlns="http://www.w3.org/2000/svg">
<path d="M14.833 13.641C13.7101 13.641 12.7488 13.2412 11.9492 12.4416C11.1495 11.6419 10.7497 10.6806 10.7497 9.55773C10.7497 8.43481 11.1495 7.47354 11.9492 6.67391C12.7488 5.87425 13.7101 5.47443 14.833 5.47443C15.9559 5.47443 16.9172 5.87425 17.7168 6.67391C18.5165 7.47354 18.9163 8.43481 18.9163 9.55773C18.9163 10.6806 18.5165 11.6419 17.7168 12.4416C16.9172 13.2412 15.9559 13.641 14.833 13.641ZM6.08301 22.5256V19.9321C6.08301 19.3607 6.23819 18.8316 6.54857 18.3447C6.85892 17.8579 7.2736 17.4836 7.79261 17.2218C8.94582 16.6564 10.1091 16.2324 11.2825 15.9497C12.4559 15.667 13.6394 15.5257 14.833 15.5257C16.0266 15.5257 17.21 15.667 18.3834 15.9497C19.5568 16.2324 20.7201 16.6564 21.8733 17.2218C22.3924 17.4836 22.807 17.8579 23.1174 18.3447C23.4278 18.8316 23.583 19.3607 23.583 19.9321V22.5256H6.08301ZM7.83298 20.7756H21.833V19.9321C21.833 19.6957 21.7645 19.477 21.6277 19.2758C21.4908 19.0746 21.305 18.9105 21.0702 18.7833C20.065 18.2882 19.0401 17.9132 17.9955 17.6582C16.9508 17.4031 15.8966 17.2756 14.833 17.2756C13.7693 17.2756 12.7152 17.4031 11.6705 17.6582C10.6258 17.9132 9.60093 18.2882 8.5958 18.7833C8.36097 18.9105 8.17513 19.0746 8.03828 19.2758C7.90141 19.477 7.83298 19.6957 7.83298 19.9321V20.7756ZM14.833 11.8911C15.4746 11.8911 16.024 11.6626 16.4809 11.2056C16.9378 10.7487 17.1663 10.1994 17.1663 9.55773C17.1663 8.91606 16.9378 8.36676 16.4809 7.90981C16.024 7.45287 15.4746 7.2244 14.833 7.2244C14.1913 7.2244 13.642 7.45287 13.1851 7.90981C12.7281 8.36676 12.4996 8.91606 12.4996 9.55773C12.4996 10.1994 12.7281 10.7487 13.1851 11.2056C13.642 11.6626 14.1913 11.8911 14.833 11.8911Z" fill="#0B3010"/>
</svg>
