<svg width="220" height="84" viewBox="0 0 220 84" fill="none" xmlns="http://www.w3.org/2000/svg">
<path d="M73.1396 81.8878V55.8674L71.7592 55.0392V52.8996L79.1443 51.7492H80.6397V81.8878H73.1396Z" fill="#D2F5D6"/>
<path d="M97.095 79.8402L96.8649 80.0933C96.7115 80.2773 96.4738 80.4921 96.1517 80.7375C95.845 80.9829 95.4845 81.2283 95.0704 81.4737C94.6716 81.7191 94.1808 81.9261 93.598 82.0948C93.0152 82.2789 92.417 82.3709 91.8035 82.3709C87.6623 82.3709 85.5917 80.3233 85.5917 76.2282C85.5917 75.4306 85.7374 74.7021 86.0288 74.0426C86.3203 73.3677 86.696 72.8002 87.1562 72.3401C87.6163 71.8799 88.1684 71.4735 88.8126 71.1207C89.4568 70.7526 90.101 70.4689 90.7452 70.2695C91.4047 70.0548 92.0949 69.8784 92.8158 69.7403C93.5366 69.6023 94.1808 69.5103 94.7483 69.4643C95.3158 69.4182 95.8603 69.3952 96.3818 69.3952V68.9811C96.3818 68.0455 96.1287 67.386 95.6226 67.0026C95.1318 66.6191 94.3342 66.4274 93.2299 66.4274C92.2789 66.4274 91.2897 66.5424 90.262 66.7725C89.2344 66.9872 88.4292 67.248 87.8463 67.5547L86.3739 64.4258C87.4169 63.751 88.7743 63.1605 90.4461 62.6543C92.1179 62.1328 93.8204 61.8721 95.5535 61.8721C97.0873 61.8721 98.3527 62.0255 99.3496 62.3322C100.347 62.6236 101.152 63.1298 101.765 63.8507C102.394 64.5562 102.839 65.4611 103.1 66.5654C103.36 67.6544 103.491 69.0425 103.491 70.7296V80.0933L104.135 81.8878H97.8312L97.095 79.8402ZM95.2775 78.3218C95.4769 78.3218 95.6609 78.2834 95.8296 78.2067C96.0137 78.1147 96.1517 78.0304 96.2437 77.9537C96.3358 77.8616 96.3818 77.8156 96.3818 77.8156V72.2941C95.4462 72.2941 94.7023 72.5548 94.1501 73.0763C93.598 73.5824 93.3219 74.3723 93.3219 75.446C93.3219 77.3632 93.9738 78.3218 95.2775 78.3218Z" fill="#D2F5D6"/>
<path d="M117.315 81.8878H109.884V67.0026L108.504 66.1513V63.6896L113.45 62.3322H117.361V65.3001L117.637 64.955C117.821 64.7096 118.09 64.4182 118.443 64.0807C118.811 63.7433 119.217 63.4135 119.662 63.0914C120.107 62.754 120.636 62.4703 121.249 62.2402C121.878 61.9948 122.492 61.8721 123.09 61.8721C125.191 61.8721 126.671 62.4473 127.53 63.5976C128.404 64.7479 128.841 66.6728 128.841 69.3722C128.841 69.4643 128.841 69.6023 128.841 69.7864C128.826 69.9704 128.818 70.1161 128.818 70.2235V81.8878H121.226V69.5563C121.272 68.1145 120.659 67.3937 119.386 67.3937C119.294 67.3937 119.202 67.4013 119.11 67.4167C119.033 67.432 118.956 67.4474 118.88 67.4627C118.818 67.478 118.742 67.5087 118.65 67.5547C118.573 67.5854 118.504 67.6161 118.443 67.6467C118.381 67.6621 118.312 67.7004 118.235 67.7618C118.159 67.8078 118.097 67.8461 118.051 67.8768C118.005 67.9075 117.936 67.9612 117.844 68.0378C117.768 68.0992 117.706 68.1452 117.66 68.1759C117.63 68.2066 117.568 68.2602 117.476 68.3369C117.4 68.3983 117.346 68.4443 117.315 68.475V81.8878Z" fill="#D2F5D6"/>
<path d="M140.557 82.3709C138.486 82.3709 137.037 81.7497 136.209 80.5074C135.396 79.265 134.989 77.1638 134.989 74.2036V66.3814H133.402V63.1835L136.117 62.3322L138.463 56.9717H142.512V62.3322H146.285V66.3814H142.443V74.9398C142.443 76.1668 142.62 76.9797 142.973 77.3785C143.325 77.7773 143.87 77.9767 144.606 77.9767C144.928 77.9767 145.219 77.9383 145.48 77.8616C145.741 77.785 145.956 77.6776 146.124 77.5396V80.6684C145.894 80.8985 145.595 81.1286 145.227 81.3586C144.859 81.5734 144.246 81.7958 143.387 82.0258C142.543 82.2559 141.6 82.3709 140.557 82.3709Z" fill="#D2F5D6"/>
<path d="M154.114 82.3249L150.341 78.5288V77.7236L154.114 73.9505H154.989L158.923 77.7236V78.5288L154.989 82.3249H154.114Z" fill="#D2F5D6"/>
<path d="M199.964 79.8402L199.734 80.0933C199.58 80.2773 199.343 80.4921 199.021 80.7375C198.714 80.9829 198.353 81.2283 197.939 81.4737C197.54 81.7191 197.05 81.9261 196.467 82.0948C195.884 82.2789 195.286 82.3709 194.672 82.3709C190.531 82.3709 188.461 80.3233 188.461 76.2282C188.461 75.4306 188.606 74.7021 188.898 74.0426C189.189 73.3677 189.565 72.8002 190.025 72.3401C190.485 71.8799 191.037 71.4735 191.681 71.1207C192.326 70.7526 192.97 70.4689 193.614 70.2695C194.274 70.0548 194.964 69.8784 195.685 69.7403C196.405 69.6023 197.05 69.5103 197.617 69.4643C198.185 69.4182 198.729 69.3952 199.251 69.3952V68.9811C199.251 68.0455 198.998 67.386 198.491 67.0026C198.001 66.6191 197.203 66.4274 196.099 66.4274C195.148 66.4274 194.159 66.5424 193.131 66.7725C192.103 66.9872 191.298 67.248 190.715 67.5547L189.243 64.4258C190.286 63.751 191.643 63.1605 193.315 62.6543C194.987 62.1328 196.689 61.8721 198.422 61.8721C199.956 61.8721 201.222 62.0255 202.218 62.3322C203.215 62.6236 204.021 63.1298 204.634 63.8507C205.263 64.5562 205.708 65.4611 205.969 66.5654C206.229 67.6544 206.36 69.0425 206.36 70.7296V80.0933L207.004 81.8878H200.7L199.964 79.8402ZM198.146 78.3218C198.346 78.3218 198.53 78.2834 198.698 78.2067C198.883 78.1147 199.021 78.0304 199.113 77.9537C199.205 77.8616 199.251 77.8156 199.251 77.8156V72.2941C198.315 72.2941 197.571 72.5548 197.019 73.0763C196.467 73.5824 196.191 74.3723 196.191 75.446C196.191 77.3632 196.843 78.3218 198.146 78.3218Z" fill="#D2F5D6"/>
<path d="M212.5 81.8878V55.8674L211.119 55.0392V52.8996L218.505 51.7492H220V81.8878H212.5Z" fill="#D2F5D6"/>
<path d="M171.836 81.8878H163.489V52.3315H166.818C167.709 52.3315 169.054 52.2978 170.853 52.2306C172.652 52.1465 174.131 52.1045 175.291 52.1045C178.553 52.1045 181.024 52.9703 182.706 54.702C184.387 56.4337 185.228 59.0312 185.228 62.4946C185.228 64.5794 184.95 66.4792 184.395 68.194C183.857 69.8921 183.126 71.2875 182.201 72.3803C181.277 73.4731 180.226 74.3138 179.049 74.9022C177.872 75.4906 176.628 75.7849 175.317 75.7849C175.149 75.7849 174.972 75.7849 174.787 75.7849C174.619 75.7849 174.459 75.7849 174.308 75.7849C174.173 75.7681 174.005 75.7596 173.804 75.7596C173.619 75.7428 173.467 75.7344 173.35 75.7344C173.249 75.7176 173.097 75.7092 172.896 75.7092C172.711 75.6924 172.585 75.684 172.517 75.684C172.45 75.684 172.324 75.6756 172.139 75.6588C171.954 75.642 171.853 75.6335 171.836 75.6335V81.8878ZM176.956 61.385C176.956 60.1409 176.62 59.1321 175.947 58.3587C175.275 57.5854 174.308 57.1987 173.047 57.1987H171.836V70.3124H172.77C174.098 70.3124 175.123 69.8669 175.846 68.9758C176.586 68.0847 176.956 66.7986 176.956 65.1173V61.385Z" fill="#D2F5D6"/>
<path d="M22.4905 60.6041C21.6339 56.1501 15.5668 49.6119 12.6403 46.8995C19.15 48.4413 24.6318 55.9645 26.559 59.5335C26.9017 51.6533 21.7053 45.5433 19.0643 43.4733C13.4953 39.1084 3.49754 39.3447 0 40.1298C0.85654 41.8429 2.39086 43.9286 3.37382 46.8775C5.62303 53.6252 5.28829 53.2522 6.00208 54.6084C10.1215 61.4974 18.1364 60.8896 22.4905 60.6041Z" fill="#D2F5D6"/>
<path d="M33.4347 79.0588C27.2676 53.0199 27.6261 34.0904 30.2227 25.525C32.6135 17.6377 35.2906 13.819 36.4326 12.2487C43.8598 1.89328 56.2305 -0.355853 66.6257 0.0429527C85.4703 0.765918 97.4611 5.89598 99.1742 7.32354C97.2898 8.86531 95.8194 17.1024 95.3197 21.0282C92.2177 40.1298 80.4017 45.0827 73.0497 46.5102C59.4572 49.1496 50.851 47.1526 47.7818 46.5102C47.7818 41.5423 49.6376 36.1604 50.5655 34.0904C55.1908 25.525 63.1995 21.8133 66.6257 21.0282C57.8889 29.1865 55.2765 37.8466 55.0624 41.1569C60.8868 41.1569 68.0532 39.8721 70.9084 39.2296C85.47 35.6315 85.8264 19.9575 84.613 12.2487C76.2617 9.67903 65.8365 8.57213 59.9875 10.3214C50.5655 13.1393 44.4984 21.5992 42.8567 27.024C38.9166 44.4974 44.4984 65.8538 47.7818 74.3478C48.3581 76.1172 48.8371 79.1923 47.7818 80.3436C45.8974 82.3993 41.2863 83.0559 39.2164 83.1273C35.7902 83.2986 33.9344 80.4863 33.4347 79.0588Z" fill="#D2F5D6"/>
</svg>
